# xmcd
#
# Track frame offsets: 
#        150
#        12449
#        22813
#        38551
#        52860
#        64737
#        78341
#        90723
#        101903
#        118294
#        133508
#        144207
#
# Disc length: 2119 seconds
#
# Revision: 0
# Processed by: cddbd v1.5.2PL0 Copyright (c) Steve Scherf et al.
# Submitted via: ExactAudioCopyFreeDBPlugin 1.0
#
DISCID=9308450c
DTITLE=Kristine Jackson - KJBlues Vol 1
DYEAR=2012
DGENRE=Blues
TTITLE0=Wishing Well
TTITLE1=Red Clay Halo
TTITLE2=At My Heels
TTITLE3=Too Close
TTITLE4=Swordfishtrombone
TTITLE5=He Caught the Katy
TTITLE6=Hallelujah
TTITLE7=Ooh Child
TTITLE8=Jockey Full of Bourbon
TTITLE9=Wallpaper
TTITLE10=In The Pines
TTITLE11=Cold Cold Ground
EXTD=
EXTT0=
EXTT1=
EXTT2=
EXTT3=
EXTT4=
EXTT5=
EXTT6=
EXTT7=
EXTT8=
EXTT9=
EXTT10=
EXTT11=
PLAYORDER=
